<svg width="10" height="8" viewBox="0 0 10 8" fill="none" xmlns="http://www.w3.org/2000/svg">
<path fill-rule="evenodd" clip-rule="evenodd" d="M1.51368 2.64685C1.57191 2.59017 1.64106 2.54521 1.71718 2.51453C1.7933 2.48386 1.87489 2.46806 1.95729 2.46806C2.03968 2.46806 2.12128 2.48386 2.19739 2.51453C2.27351 2.54521 2.34266 2.59017 2.4009 2.64685L3.73078 3.9398L7.60508 0.173118C7.66327 0.11751 7.73216 0.0736002 7.80781 0.0438995C7.88347 0.0141987 7.9644 -0.000710044 8.04599 2.59814e-05C8.12758 0.000762006 8.20822 0.0171284 8.28329 0.0481889C8.35837 0.0792495 8.42641 0.124395 8.48352 0.181043L9.81404 1.4746C9.93146 1.58672 9.99832 1.73955 9.99997 1.89955C10.0016 2.05955 9.9379 2.21365 9.82282 2.32803L4.16593 7.82718C4.1077 7.88275 4.03878 7.92661 3.9631 7.95626C3.88742 7.98591 3.80648 8.00076 3.72489 7.99997C3.6433 7.99918 3.56268 7.98275 3.48762 7.95164C3.41257 7.92053 3.34456 7.87533 3.28749 7.81865L0.183787 4.80116C0.125528 4.74464 0.0793068 4.67752 0.04777 4.60361C0.0162331 4.52971 0 4.45049 0 4.37048C0 4.29047 0.0162331 4.21124 0.04777 4.13734C0.0793068 4.06344 0.125528 3.99631 0.183787 3.9398L1.51368 2.64685Z" fill="#F9B517"/>
</svg>
