<svg width="10" height="6" viewBox="0 0 10 6" fill="none" xmlns="http://www.w3.org/2000/svg">
<path d="M4.94898 0.147239H4.14158C4.09949 0.147239 4.06505 0.180368 4.06505 0.220859V4.39509H3.99235L0.987245 0.179141C0.973214 0.159509 0.94898 0.147239 0.924745 0.147239H0.0765306C0.0344388 0.147239 0 0.180368 0 0.220859V5.91411C0 5.9546 0.0344388 5.98773 0.0765306 5.98773H0.876275C0.918367 5.98773 0.952806 5.9546 0.952806 5.91411V1.68221H1.02551L4.06378 5.95583C4.07781 5.97546 4.10204 5.98773 4.12755 5.98773H4.94898C4.99107 5.98773 5.02551 5.9546 5.02551 5.91411V0.220859C5.02551 0.180368 4.99107 0.147239 4.94898 0.147239ZM9.77041 5.21472H5.89286C5.83674 5.21472 5.79082 5.2589 5.79082 5.31288V5.90184C5.79082 5.95583 5.83674 6 5.89286 6H9.77041C9.82653 6 9.87245 5.95583 9.87245 5.90184V5.31288C9.87245 5.2589 9.82653 5.21472 9.77041 5.21472ZM7.82908 4.44172C8.50383 4.44172 9.04337 4.23067 9.43878 3.80736C9.81378 3.40368 10 2.8773 10 2.22699C10 1.57546 9.81378 1.04294 9.43878 0.640491C9.04464 0.213497 8.5051 0 7.82908 0C7.14413 0 6.60587 0.214724 6.21811 0.647853C5.84566 1.05399 5.66454 1.57914 5.66454 2.22699C5.66454 2.86994 5.84694 3.39509 6.21939 3.80123C6.60969 4.22699 7.15051 4.44172 7.82908 4.44172ZM6.91709 1.20613C7.13265 0.953374 7.43112 0.826994 7.82781 0.826994C8.22959 0.826994 8.52679 0.944785 8.73342 1.18405C8.9426 1.43313 9.05102 1.78037 9.05102 2.22577C9.05102 2.67117 8.94388 3.01227 8.73469 3.25521C8.52424 3.49325 8.22449 3.6135 7.82781 3.6135C7.42985 3.6135 7.12628 3.48712 6.91709 3.24049C6.70918 2.99386 6.60459 2.66012 6.60459 2.22699C6.60587 1.78773 6.70918 1.45399 6.91709 1.20613Z" fill="#F9B517"/>
</svg>
