<svg width="10" height="10" viewBox="0 0 10 10" fill="none" xmlns="http://www.w3.org/2000/svg">
<path d="M9.44757 6.92789L9.44613 6.92668C9.20741 6.70601 8.8985 6.65409 8.67301 6.61611L8.65643 6.61322C8.43887 6.5774 8.40449 6.55312 8.30593 6.4649C8.24727 6.41274 8.17732 6.32909 8.17732 6.22596C8.17732 6.12284 8.24727 6.03918 8.30569 5.98702L9.03361 5.34111C9.65671 4.79038 10 4.0512 10 3.25962C10 2.46803 9.65744 1.72885 9.03361 1.17788C8.17083 0.41851 6.99024 0 5.70725 0C4.22424 0 2.74052 0.561779 1.63469 1.54111C0.580076 2.47308 0 3.72163 0 5.05649C0 6.39135 0.580797 7.6399 1.63469 8.57163C2.15756 9.03413 2.77634 9.39327 3.47421 9.63942C4.14543 9.87485 4.85122 9.99671 5.56253 10H5.60604C7.07246 10 8.46892 9.50553 9.43771 8.64423C9.6709 8.43846 9.80191 8.14351 9.80648 7.81346C9.81153 7.47284 9.67739 7.14159 9.44757 6.92789ZM1.53854 3.84615C1.53854 3.69401 1.58365 3.54529 1.66818 3.41879C1.75271 3.29229 1.87285 3.1937 2.01342 3.13548C2.15398 3.07726 2.30866 3.06202 2.45788 3.0917C2.6071 3.12138 2.74417 3.19465 2.85176 3.30223C2.95934 3.4098 3.03261 3.54687 3.06229 3.69608C3.09197 3.8453 3.07674 3.99997 3.01851 4.14053C2.96029 4.28108 2.86169 4.40122 2.73519 4.48575C2.60868 4.57027 2.45995 4.61538 2.3078 4.61538C2.10378 4.61538 1.90811 4.53434 1.76385 4.39008C1.61958 4.24582 1.53854 4.05017 1.53854 3.84615ZM2.50012 7.09135C2.34797 7.09135 2.19924 7.04623 2.07274 6.96171C1.94623 6.87718 1.84763 6.75705 1.78941 6.61649C1.73119 6.47593 1.71595 6.32126 1.74563 6.17205C1.77532 6.02283 1.84858 5.88577 1.95617 5.77819C2.06375 5.67061 2.20082 5.59735 2.35004 5.56767C2.49927 5.53798 2.65394 5.55322 2.79451 5.61144C2.93507 5.66966 3.05521 5.76825 3.13974 5.89475C3.22427 6.02125 3.26939 6.16998 3.26939 6.32212C3.26939 6.52613 3.18834 6.72178 3.04407 6.86604C2.89981 7.0103 2.70414 7.09135 2.50012 7.09135ZM3.4617 2.30769C3.4617 2.15555 3.50682 2.00683 3.59135 1.88033C3.67588 1.75383 3.79602 1.65524 3.93659 1.59702C4.07715 1.53879 4.23183 1.52356 4.38105 1.55324C4.53027 1.58292 4.66734 1.65619 4.77493 1.76376C4.88251 1.87134 4.95578 2.00841 4.98546 2.15762C5.01514 2.30684 4.99991 2.46151 4.94168 2.60206C4.88346 2.74262 4.78486 2.86276 4.65835 2.94728C4.53185 3.03181 4.38312 3.07692 4.23097 3.07692C4.02695 3.07692 3.83128 2.99588 3.68702 2.85162C3.54275 2.70736 3.4617 2.5117 3.4617 2.30769ZM5.00024 8.82212C4.77202 8.82212 4.54892 8.75444 4.35917 8.62766C4.16941 8.50087 4.02151 8.32066 3.93417 8.10983C3.84684 7.89899 3.82399 7.66699 3.86851 7.44316C3.91303 7.21934 4.02293 7.01375 4.18431 6.85238C4.34568 6.69101 4.55129 6.58112 4.77513 6.53659C4.99896 6.49207 5.23097 6.51492 5.44182 6.60225C5.65267 6.68959 5.83288 6.83748 5.95967 7.02723C6.08647 7.21698 6.15414 7.44006 6.15414 7.66827C6.15414 7.97429 6.03257 8.26777 5.81617 8.48416C5.59977 8.70055 5.30627 8.82212 5.00024 8.82212ZM6.73109 3.07692C6.57895 3.07692 6.43022 3.03181 6.30371 2.94728C6.1772 2.86276 6.07861 2.74262 6.02038 2.60206C5.96216 2.46151 5.94692 2.30684 5.97661 2.15762C6.00629 2.00841 6.07955 1.87134 6.18714 1.76376C6.29472 1.65619 6.43179 1.58292 6.58102 1.55324C6.73024 1.52356 6.88491 1.53879 7.02548 1.59702C7.16604 1.65524 7.28619 1.75383 7.37072 1.88033C7.45524 2.00683 7.50036 2.15555 7.50036 2.30769C7.50036 2.5117 7.41931 2.70736 7.27505 2.85162C7.13078 2.99588 6.93512 3.07692 6.73109 3.07692Z" fill="#F9B517"/>
</svg>
