<svg width="10" height="9" viewBox="0 0 10 9" fill="none" xmlns="http://www.w3.org/2000/svg">
<path d="M6.40002 0.806435L9.75053 6.38698C10.232 7.18849 9.99553 8.24299 9.22203 8.742C8.96242 8.9101 8.6598 8.99968 8.35052 9H1.649C0.738502 9 0 8.23499 0 7.29049C0 6.97098 0.0865002 6.65848 0.249001 6.38698L3.60001 0.806435C4.08101 0.00492916 5.09801 -0.240573 5.87152 0.258431C6.08552 0.396432 6.26652 0.583934 6.40002 0.806435ZM5.00001 6.99998C5.13262 6.99998 5.2598 6.94731 5.35357 6.85354C5.44734 6.75977 5.50002 6.63259 5.50002 6.49998C5.50002 6.36737 5.44734 6.24019 5.35357 6.14642C5.2598 6.05266 5.13262 5.99998 5.00001 5.99998C4.86741 5.99998 4.74023 6.05266 4.64646 6.14642C4.55269 6.24019 4.50001 6.36737 4.50001 6.49998C4.50001 6.63259 4.55269 6.75977 4.64646 6.85354C4.74023 6.94731 4.86741 6.99998 5.00001 6.99998ZM5.00001 2.49995C4.86741 2.49995 4.74023 2.55263 4.64646 2.6464C4.55269 2.74017 4.50001 2.86734 4.50001 2.99995V4.99997C4.50001 5.13258 4.55269 5.25976 4.64646 5.35352C4.74023 5.44729 4.86741 5.49997 5.00001 5.49997C5.13262 5.49997 5.2598 5.44729 5.35357 5.35352C5.44734 5.25976 5.50002 5.13258 5.50002 4.99997V2.99995C5.50002 2.86734 5.44734 2.74017 5.35357 2.6464C5.2598 2.55263 5.13262 2.49995 5.00001 2.49995Z" fill="#F9B517"/>
</svg>
