<svg width="10" height="10" viewBox="0 0 10 10" fill="none" xmlns="http://www.w3.org/2000/svg">
<path d="M9.53384 1.5801L8.24138 0.288835C8.15021 0.197262 8.04184 0.124604 7.92251 0.075037C7.80317 0.0254696 7.67522 -3.09704e-05 7.546 2.82276e-08C7.28266 2.82276e-08 7.03509 0.103155 6.84941 0.288835L5.45866 1.67961C5.36708 1.77078 5.29443 1.87915 5.24486 1.99849C5.19529 2.11782 5.16979 2.24578 5.16983 2.375C5.16983 2.63835 5.27298 2.88592 5.45866 3.0716L6.47563 4.08859C6.23758 4.6133 5.90661 5.09064 5.4987 5.49757C5.09182 5.90648 4.61453 6.23866 4.08975 6.47816L3.07277 5.46116C2.9816 5.36959 2.87323 5.29693 2.7539 5.24737C2.63456 5.1978 2.50661 5.1723 2.37739 5.17233C2.11405 5.17233 1.86648 5.27549 1.6808 5.46116L0.288831 6.85073C0.197147 6.94207 0.124428 7.05064 0.0748593 7.17019C0.0252904 7.28974 -0.000150385 7.41791 6.68724e-07 7.54733C6.68724e-07 7.81068 0.103154 8.05825 0.288831 8.24393L1.57886 9.53398C1.87497 9.83131 2.28395 10 2.70384 10C2.79243 10 2.87738 9.99272 2.96112 9.97816C4.59702 9.70874 6.21957 8.83859 7.52901 7.53034C8.83725 6.2233 9.70617 4.60194 9.97922 2.96116C10.0617 2.45995 9.89548 1.94417 9.53384 1.5801Z" fill="#F9B517"/>
</svg>
