<svg width="10" height="10" viewBox="0 0 10 10" fill="none" xmlns="http://www.w3.org/2000/svg">
<path d="M6.72435 4.95193C6.66934 3.80043 5.84934 3.10744 4.85933 3.10744H4.81932C3.67431 3.10744 3.04431 4.04532 3.04431 5.10825C3.04431 6.30143 3.80931 7.05695 4.81432 7.05695C5.93934 7.05695 6.67434 6.19723 6.72935 5.1864L6.72435 4.95193ZM4.82432 2.07577C5.58933 2.07577 6.30934 2.43008 6.83435 2.98239C6.83435 2.71666 6.99935 2.51866 7.24935 2.51866H7.30435C7.67436 2.51866 7.74936 2.88339 7.74936 2.99802V7.11426C7.72936 7.38521 8.01936 7.52068 8.18436 7.34352C8.81937 6.67138 9.57438 3.85774 7.78936 2.23208C6.12434 0.710638 3.88932 0.960739 2.6993 1.81525C1.43929 2.72187 0.62928 4.7383 1.41429 6.61927C2.2693 8.67739 4.71932 9.29222 6.17434 8.67739C6.91435 8.36998 7.24935 9.40685 6.49934 9.74553C5.32933 10.2614 2.1143 10.2093 0.60928 7.49463C-0.40573 5.66055 -0.35573 2.43529 2.3393 0.762742C4.40432 -0.513815 7.11935 -0.159505 8.74937 1.61204C10.4744 3.4878 10.3744 6.97879 8.69937 8.33871C7.94436 8.95355 6.81935 8.35435 6.82935 7.45294L6.81935 7.16116C6.55818 7.43559 6.24739 7.65334 5.90495 7.8018C5.56251 7.95026 5.19522 8.0265 4.82432 8.02609C3.31431 8.02609 1.99929 6.64011 1.99929 5.06656C1.99929 3.47738 3.31431 2.07577 4.82432 2.07577Z" fill="#F9B517"/>
</svg>
