<svg width="10" height="10" viewBox="0 0 10 10" fill="none" xmlns="http://www.w3.org/2000/svg">
<path d="M2.29167 0H7.70833C8.31612 0 8.89902 0.241443 9.32879 0.671214C9.75856 1.10098 10 1.68388 10 2.29167V7.70833C10 8.31612 9.75856 8.89902 9.32879 9.32879C8.89902 9.75856 8.31612 10 7.70833 10H2.29167C1.68388 10 1.10098 9.75856 0.671214 9.32879C0.241443 8.89902 0 8.31612 0 7.70833L0 2.29167C0 1.68388 0.241443 1.10098 0.671214 0.671214C1.10098 0.241443 1.68388 0 2.29167 0V0ZM6.4125 6.325C6.4125 6.98333 6.04167 7.42083 5.35417 7.47917V5.25417C6.0625 5.47083 6.4125 5.69167 6.4125 6.325ZM4.85417 2.5V4.53333C4.30833 4.375 3.7625 4.1375 3.7625 3.5125C3.7625 2.89167 4.24167 2.55 4.85417 2.5ZM6.45833 3.16667L6.875 2.83333C6.50833 2.35833 6 2.05 5.35417 1.9875V1.58333H4.85417V1.97917C3.95833 2.0375 3.2 2.57083 3.2 3.54167C3.2 4.58333 4.05833 4.90833 4.85417 5.12083V7.48333C4.39167 7.43333 3.87083 7.2125 3.5125 6.67917L3.04167 6.99167C3.41667 7.55 4.06667 7.91667 4.85417 7.975V8.41667H5.35417V7.98333C6.39583 7.91667 6.95833 7.225 6.95833 6.30833C6.95833 5.24167 6.17083 4.9 5.35417 4.6625V2.52083C5.83333 2.59167 6.1875 2.81667 6.45833 3.16667Z" fill="#F9B517"/>
</svg>
