<svg width="12" height="10" viewBox="0 0 12 10" fill="none" xmlns="http://www.w3.org/2000/svg">
<path d="M0.484848 2.10857e-05C0.356259 2.10857e-05 0.232936 0.0526995 0.142009 0.146467C0.0510821 0.240235 0 0.367412 0 0.50002C0 0.632628 0.0510821 0.759805 0.142009 0.853573C0.232936 0.947341 0.356259 1.00002 0.484848 1.00002H1.56121L2.83345 6.25001C2.94158 6.69501 3.328 7.00001 3.77261 7.00001H9.81867C10.2565 7.00001 10.6284 6.70001 10.7433 6.26501L12 1.50002H10.9847L9.81818 6.00001H3.77212L2.50036 0.75002C2.44783 0.534634 2.32673 0.343659 2.15645 0.207678C1.98617 0.0716956 1.77657 -0.00142646 1.56121 2.10857e-05H0.484848ZM9.21212 7.00001C8.41455 7.00001 7.75758 7.67751 7.75758 8.5C7.75758 9.3225 8.41455 10 9.21212 10C10.0097 10 10.6667 9.3225 10.6667 8.5C10.6667 7.67751 10.0097 7.00001 9.21212 7.00001ZM4.84848 7.00001C4.05091 7.00001 3.39394 7.67751 3.39394 8.5C3.39394 9.3225 4.05091 10 4.84848 10C5.64606 10 6.30303 9.3225 6.30303 8.5C6.30303 7.67751 5.64606 7.00001 4.84848 7.00001ZM6.30303 2.10857e-05V2.50002H4.84848L6.78788 4.50001L8.72727 2.50002H7.27273V2.10857e-05H6.30303ZM4.84848 8C5.12194 8 5.33333 8.218 5.33333 8.5C5.33333 8.782 5.12194 9 4.84848 9C4.57503 9 4.36364 8.782 4.36364 8.5C4.36364 8.218 4.57503 8 4.84848 8ZM9.21212 8C9.48558 8 9.69697 8.218 9.69697 8.5C9.69697 8.782 9.48558 9 9.21212 9C8.93867 9 8.72727 8.782 8.72727 8.5C8.72727 8.218 8.93867 8 9.21212 8Z" fill="#F9B517"/>
</svg>
