<svg width="10" height="7" viewBox="0 0 10 7" fill="none" xmlns="http://www.w3.org/2000/svg">
<path fill-rule="evenodd" clip-rule="evenodd" d="M1.73413 0C1.04165 0 0.5024 0.30647 0.212306 0.863262C0.0803367 1.12095 0.00779047 1.40494 0 1.69436V6.62829C0 6.62829 0.694236 5.84164 1.91368 6.62829C3.47937 7.56349 4.00692 6.17735 4.68419 6.62829C5.76327 7.46464 6.38907 6.62829 6.38907 6.62829C6.38907 6.62829 6.38147 2.62078 6.38907 2.51609C6.43002 1.84701 6.52125 1.25044 6.77567 0.804775C7.05933 0.308224 7.4471 0.000584824 7.8758 0.000584824H1.73413V0Z" fill="#F9B517"/>
<path fill-rule="evenodd" clip-rule="evenodd" d="M8.78867 1.00187C8.61497 0.762657 8.4126 0.621704 8.19386 0.621704C7.88389 0.621704 7.60256 0.903609 7.39611 1.35864C7.21246 1.7657 7.08847 2.31197 7.05688 2.92374V3.51094C7.12239 4.80642 7.60549 5.81297 8.19386 5.81297C8.8261 5.81297 9.33903 4.65143 9.33903 3.21734C9.33962 2.27804 9.11912 1.45748 8.78867 1.00187ZM8.19445 4.70641C7.88447 4.70641 7.62947 4.12681 7.59555 3.38227V3.04305C7.61251 2.69154 7.67743 2.37689 7.77393 2.14469C7.8833 1.87975 8.03069 1.71833 8.19503 1.71833C8.30908 1.71833 8.41553 1.79845 8.50677 1.93882C8.68106 2.19967 8.79686 2.67341 8.79686 3.21324C8.79628 4.03791 8.52548 4.70641 8.19445 4.70641Z" fill="#F9B517"/>
</svg>
