<svg width="20" height="16" viewBox="0 0 20 16" fill="none" xmlns="http://www.w3.org/2000/svg">
<path d="M2 0H18C18.5304 0 19.0391 0.210714 19.4142 0.585786C19.7893 0.960859 20 1.46957 20 2V14C20 14.5304 19.7893 15.0391 19.4142 15.4142C19.0391 15.7893 18.5304 16 18 16H2C1.46957 16 0.960859 15.7893 0.585786 15.4142C0.210714 15.0391 0 14.5304 0 14V2C0 1.46957 0.210714 0.960859 0.585786 0.585786C0.960859 0.210714 1.46957 0 2 0ZM2 2V14H9V2H2ZM18 14V2H16.76C17 2.54 16.95 3.07 16.95 3.13C16.88 3.8 16.41 4.5 16.24 4.75L13.91 7.3L17.23 7.28L17.24 8.5L12.04 8.47L12 7.47C12 7.47 15.05 4.24 15.2 3.95C15.34 3.67 15.91 2 14.5 2C13.27 2.05 13.41 3.3 13.41 3.3L11.87 3.31C11.87 3.31 11.88 2.65 12.25 2H11V14H13.58L13.57 13.14L14.54 13.13C14.54 13.13 15.45 12.97 15.46 12.08C15.5 11.08 14.65 11.08 14.5 11.08C14.37 11.08 13.43 11.13 13.43 11.95H11.91C11.91 11.95 11.95 9.89 14.5 9.89C17.1 9.89 16.96 11.91 16.96 11.91C16.96 11.91 17 13.16 15.85 13.63L16.37 14H18ZM6.92 12H5.42V6.2L3.62 6.76V5.53L6.76 4.41H6.92V12Z" fill="#F9B517"/>
</svg>
