<svg width="23" height="16" viewBox="0 0 23 16" fill="none" xmlns="http://www.w3.org/2000/svg">
<path d="M22.3226 0.802143C20.9286 0.221071 19.5335 4.29557e-08 18.1392 4.29557e-08C13.7128 -0.0003571 9.28682 2.22643 4.86047 2.22643C3.75038 2.22643 2.64101 2.08643 1.53091 1.73643C1.40621 1.69714 1.28115 1.67857 1.15897 1.67857C0.540492 1.67857 0 2.15429 0 2.81464V14.1454C0 14.5964 0.259824 15.0239 0.677052 15.1975C2.07105 15.7789 3.46612 16 4.86047 16C9.28682 16 13.7132 13.7732 18.1395 13.7732C19.2496 13.7732 20.359 13.9132 21.4691 14.2632C21.5938 14.3025 21.7188 14.3211 21.841 14.3211C22.4595 14.3211 23 13.8454 23 13.185V1.85464C22.9996 1.40321 22.7398 0.976071 22.3226 0.802143ZM1.72497 3.57929C2.44802 3.75929 3.2027 3.84964 3.97894 3.89821C3.76763 4.94786 2.83902 5.73893 1.72497 5.73893V3.57929ZM1.72497 13.7579V12.0514C2.96013 12.0514 3.95953 13.0254 4.01452 14.2443C3.20486 14.1796 2.44802 14.0189 1.72497 13.7579ZM11.4998 11.4286C9.91177 11.4286 8.62486 9.89321 8.62486 8C8.62486 6.10643 9.91213 4.57143 11.4998 4.57143C13.0875 4.57143 14.3748 6.10643 14.3748 8C14.3748 9.89393 13.0872 11.4286 11.4998 11.4286ZM21.2747 12.4207C20.6451 12.2639 19.9914 12.1761 19.3226 12.1193C19.5335 11.1879 20.3108 10.4807 21.2747 10.3593V12.4207ZM21.2747 3.98821C20.1646 3.84857 19.3032 2.9275 19.269 1.79C19.9712 1.8675 20.6379 2.0125 21.2747 2.24214V3.98821Z" fill="#F9B517"/>
</svg>
