<svg width="9" height="10" viewBox="0 0 9 10" fill="none" xmlns="http://www.w3.org/2000/svg">
<path d="M9 3.47C8.99414 3.42407 8.98283 3.37882 8.96625 3.335V3.29C8.9392 3.23859 8.90313 3.19133 8.85938 3.15L5.48438 0.15C5.43788 0.111108 5.38471 0.0790405 5.32688 0.0549999H5.27625C5.21911 0.0258706 5.156 0.0071721 5.09063 0H1.6875C1.23995 0 0.810725 0.158035 0.494257 0.43934C0.17779 0.720644 0 1.10218 0 1.5V8.5C0 8.89782 0.17779 9.27936 0.494257 9.56066C0.810725 9.84196 1.23995 10 1.6875 10H7.3125C7.76005 10 8.18928 9.84196 8.50574 9.56066C8.82221 9.27936 9 8.89782 9 8.5V3.5V3.47ZM5.625 1.705L7.08187 3H6.1875C6.03832 3 5.89524 2.94732 5.78975 2.85355C5.68426 2.75979 5.625 2.63261 5.625 2.5V1.705ZM7.875 8.5C7.875 8.63261 7.81574 8.75979 7.71025 8.85355C7.60476 8.94732 7.46168 9 7.3125 9H1.6875C1.53832 9 1.39524 8.94732 1.28975 8.85355C1.18426 8.75979 1.125 8.63261 1.125 8.5V1.5C1.125 1.36739 1.18426 1.24021 1.28975 1.14645C1.39524 1.05268 1.53832 1 1.6875 1H4.5V2.5C4.5 2.89782 4.67779 3.27936 4.99426 3.56066C5.31072 3.84196 5.73995 4 6.1875 4H7.875V8.5Z" fill="#F9B517"/>
</svg>
