<svg width="10" height="11" viewBox="0 0 10 11" fill="none" xmlns="http://www.w3.org/2000/svg">
<path d="M1.11111 11H8.88889C9.50167 11 10 10.5066 10 9.9V2.2C10 1.59335 9.50167 1.1 8.88889 1.1H7.77778V0H6.66667V1.1H3.33333V0H2.22222V1.1H1.11111C0.498333 1.1 0 1.59335 0 2.2V9.9C0 10.5066 0.498333 11 1.11111 11ZM7.05944 8.41115L6.27389 9.18885L5 7.9277L3.72611 9.18885L2.94056 8.41115L4.21445 7.15L2.94056 5.88885L3.72611 5.11115L5 6.3723L6.27389 5.11115L7.05944 5.88885L5.78556 7.15L7.05944 8.41115ZM1.11111 2.75H8.88889V3.85H1.11111V2.75Z" fill="#F9B517"/>
</svg>
