<svg width="11" height="11" viewBox="0 0 11 11" fill="none" xmlns="http://www.w3.org/2000/svg">
<path d="M5.5 0C8.53554 0 11 2.46446 11 5.5C11 8.53554 8.53554 11 5.5 11C2.46446 11 0 8.53554 0 5.5C0 2.46446 2.46446 0 5.5 0ZM1.48729 8.03871C1.91541 8.71564 2.50786 9.27323 3.20947 9.65958C3.91109 10.0459 4.69905 10.2485 5.5 10.2483C7.18713 10.2483 8.67029 9.3665 9.51271 8.03871L5.5 6.50971L1.48729 8.03871ZM6.3745 4.99492L9.70521 7.70596C10.063 7.02577 10.2494 6.26855 10.2483 5.5C10.2483 2.94388 8.22388 0.856625 5.6925 0.755333L6.3745 4.99492ZM5.3075 0.755333C2.77613 0.856625 0.751667 2.94388 0.751667 5.5C0.751667 6.29612 0.947833 7.04642 1.29479 7.70596L4.6255 4.99492L5.3075 0.755333Z" fill="#F9B517"/>
</svg>
