<svg width="10" height="7" viewBox="0 0 10 7" fill="none" xmlns="http://www.w3.org/2000/svg">
<path d="M9.83333 2.8C9.77083 2.69062 9.15396 2.41084 9.15396 2.41084C9.26125 2.35266 9.33458 2.34063 9.33458 2.1C9.33458 1.8375 9.33333 1.75 9.16667 1.75H8.60125C8.59896 1.74475 8.59646 1.73928 8.59417 1.73381C8.22917 0.896875 8.18021 0.685344 7.63583 0.400531C6.90562 0.0192499 5.53667 0 5 0C4.46333 0 3.09437 0.0192499 2.36479 0.400531C1.81979 0.684906 1.83333 0.83125 1.40646 1.73381C1.40646 1.73622 1.40208 1.74256 1.39813 1.75H0.832083C0.666667 1.75 0.665417 1.8375 0.665417 2.1C0.665417 2.34063 0.73875 2.35266 0.846042 2.41084C0.846042 2.41084 0.25 2.7125 0.166667 2.8C0.0833333 2.8875 0 3.5 0 4.55C0 5.6 0.0833333 6.65 0.0833333 6.65H0.332083C0.332083 6.95625 0.375 7 0.5 7H2.16667C2.29167 7 2.33333 6.95625 2.33333 6.65H7.66667C7.66667 6.95625 7.70833 7 7.83333 7H9.54167C9.625 7 9.66667 6.93437 9.66667 6.65H9.91667C9.91667 6.65 10 5.57812 10 4.55C10 3.52187 9.89583 2.90937 9.83333 2.8ZM2.27625 3.78306C1.89682 3.82662 1.51544 3.84896 1.13375 3.85C0.708333 3.85 0.69375 3.87866 0.66375 3.59975C0.652464 3.47209 0.656032 3.34347 0.674375 3.21672L0.6875 3.15H0.75C1 3.15 1.23479 3.16116 1.67813 3.29831C1.90361 3.36936 2.11569 3.48081 2.305 3.62775C2.39583 3.69687 2.41667 3.7625 2.41667 3.7625L2.27625 3.78306ZM7.42542 5.35806L7.33333 5.6H2.66667C2.66667 5.6 2.67479 5.58666 2.5625 5.35544C2.47917 5.18438 2.58333 5.075 2.74813 5.01288C3.06729 4.89213 4 4.55 5 4.55C6 4.55 6.95125 4.84487 7.26042 5.01288C7.375 5.075 7.51729 5.11875 7.42542 5.35938V5.35806ZM2.07125 2.37147C2.00396 2.37555 1.93651 2.37606 1.86917 2.373C1.92354 2.2715 1.95375 2.15841 2.00688 2.04028C2.17354 1.66841 2.36417 1.24753 2.70354 1.07012C3.19396 0.81375 4.21042 0.69825 5 0.69825C5.78958 0.69825 6.80604 0.812875 7.29646 1.07012C7.63583 1.24753 7.82563 1.66863 7.99313 2.04028C8.04667 2.1595 8.07646 2.27347 8.13229 2.37563C8.09063 2.37803 8.04271 2.37563 7.92833 2.37147H2.07125ZM9.31542 3.59887C9.27083 3.87187 9.3125 3.85 8.86625 3.85C8.48456 3.84896 8.10318 3.82662 7.72375 3.78306C7.66437 3.77191 7.6475 3.66669 7.695 3.62775C7.88335 3.47918 8.09572 3.36757 8.32188 3.29831C8.76521 3.16116 9.01479 3.14278 9.26125 3.15197C9.2778 3.15263 9.29354 3.1597 9.30542 3.17182C9.31731 3.18393 9.32451 3.20024 9.32563 3.21759C9.3374 3.34493 9.33397 3.47331 9.31542 3.59975V3.59887Z" fill="#F9B517"/>
</svg>
