<svg width="10" height="10" viewBox="0 0 10 10" fill="none" xmlns="http://www.w3.org/2000/svg">
<path d="M5 0C2.2379 0 0 2.2379 0 5C0 7.7621 2.2379 10 5 10C7.7621 10 10 7.7621 10 5C10 2.2379 7.7621 0 5 0ZM5 1.93548C5.97984 1.93548 6.77419 2.72984 6.77419 3.70968C6.77419 4.68952 5.97984 5.48387 5 5.48387C4.02016 5.48387 3.22581 4.68952 3.22581 3.70968C3.22581 2.72984 4.02016 1.93548 5 1.93548ZM5 8.87097C3.81653 8.87097 2.75605 8.33468 2.04637 7.49597C2.4254 6.78226 3.16734 6.29032 4.03226 6.29032C4.08065 6.29032 4.12903 6.29839 4.1754 6.3125C4.4375 6.39718 4.71169 6.45161 5 6.45161C5.28831 6.45161 5.56452 6.39718 5.8246 6.3125C5.87097 6.29839 5.91935 6.29032 5.96774 6.29032C6.83266 6.29032 7.5746 6.78226 7.95363 7.49597C7.24395 8.33468 6.18347 8.87097 5 8.87097Z" fill="#F9B517"/>
</svg>
