<svg width="12" height="6" viewBox="0 0 12 6" fill="none" xmlns="http://www.w3.org/2000/svg">
<path d="M8.18182 0H2.72727L0 3V4.5H1.09091C1.09091 4.89782 1.26331 5.27936 1.57019 5.56066C1.87707 5.84196 2.29328 6 2.72727 6C3.16126 6 3.57748 5.84196 3.88436 5.56066C4.19123 5.27936 4.36364 4.89782 4.36364 4.5H7.63636C7.63636 4.89782 7.80877 5.27936 8.11564 5.56066C8.42252 5.84196 8.83874 6 9.27273 6C9.70672 6 10.1229 5.84196 10.4298 5.56066C10.7367 5.27936 10.9091 4.89782 10.9091 4.5H12V3C12 2.445 11.5145 2 10.9091 2H9.81818L8.18182 0ZM3 0.75H5.18182V2H1.90909L3 0.75ZM6 0.75H7.90909L8.97818 2H6V0.75ZM2.72727 3.75C2.94427 3.75 3.15238 3.82902 3.30581 3.96967C3.45925 4.11032 3.54545 4.30109 3.54545 4.5C3.54545 4.69891 3.45925 4.88968 3.30581 5.03033C3.15238 5.17098 2.94427 5.25 2.72727 5.25C2.51028 5.25 2.30217 5.17098 2.14873 5.03033C1.99529 4.88968 1.90909 4.69891 1.90909 4.5C1.90909 4.30109 1.99529 4.11032 2.14873 3.96967C2.30217 3.82902 2.51028 3.75 2.72727 3.75ZM9.27273 3.75C9.48972 3.75 9.69783 3.82902 9.85127 3.96967C10.0047 4.11032 10.0909 4.30109 10.0909 4.5C10.0909 4.69891 10.0047 4.88968 9.85127 5.03033C9.69783 5.17098 9.48972 5.25 9.27273 5.25C9.05573 5.25 8.84762 5.17098 8.69419 5.03033C8.54075 4.88968 8.45455 4.69891 8.45455 4.5C8.45455 4.30109 8.54075 4.11032 8.69419 3.96967C8.84762 3.82902 9.05573 3.75 9.27273 3.75Z" fill="#F9B517"/>
</svg>
