<?xml version="1.0" encoding="utf-8"?>
<!-- Generator: Adobe Illustrator 23.0.1, SVG Export Plug-In . SVG Version: 6.00 Build 0)  -->
<svg version="1.1" id="Layer_1" xmlns="http://www.w3.org/2000/svg" xmlns:xlink="http://www.w3.org/1999/xlink" x="0px" y="0px"
	 viewBox="0 0 15 10" style="enable-background:new 0 0 15 10;" xml:space="preserve">
<style type="text/css">
	.st0{fill:#FFFFFF;}
</style>
<path class="st0" d="M14.9,5.6c-0.1-1.3-0.3-1.5-0.4-1.6c-0.2-0.2-0.4-0.4-0.7-0.5c0,0,0,0,0,0c0,0,0,0,0,0c0,0,0,0,0-0.1
	c0,0,0,0,0,0c0.1-0.1,0.1-0.1,0.1-0.2C14,3.1,14,3,14,3c0-0.1-0.1-0.2-0.2-0.3c-0.1-0.1-0.2-0.1-0.3-0.1H13c0,0,0,0-0.1,0
	c0,0,0,0,0,0c-0.3-0.6-0.7-1.4-1.5-1.9C10.2,0,7.9,0,7.5,0S4.8,0,3.6,0.6C2.8,1,2.4,1.9,2.1,2.5l0,0c0,0,0,0,0,0c0,0,0,0-0.1,0H1.5
	c-0.1,0-0.3,0-0.3,0.1C1.1,2.7,1,2.8,1,3C1,3,1,3.1,1,3.2c0,0.1,0.1,0.1,0.1,0.2c0,0,0,0,0,0c0,0,0,0,0,0.1c0,0,0,0,0,0c0,0,0,0,0,0
	C0.8,3.7,0.6,3.8,0.4,4C0.4,4.1,0.2,4.4,0.1,5.6C0,6.3,0,7.1,0,7.6c0.1,1,0.3,1.6,0.3,1.6c0,0.1,0.1,0.2,0.2,0.2
	c0.1,0.1,0.2,0.1,0.3,0.1v0c0,0.1,0.1,0.3,0.1,0.4C1,9.9,1.1,10,1.2,10H3c0.1,0,0.3-0.1,0.4-0.1c0.1-0.1,0.1-0.2,0.1-0.4
	c0.3,0,0.5,0,0.7-0.1C4.4,9.3,4.7,9.3,5,9.2c1-0.1,1.9-0.1,2.5-0.1c0.6,0,1.5,0,2.5,0.1c0.3,0,0.6,0.1,0.9,0.2
	c0.2,0,0.4,0.1,0.6,0.1c0,0.1,0.1,0.3,0.1,0.4C11.7,9.9,11.9,10,12,10h1.8c0.1,0,0.3-0.1,0.4-0.1c0.1-0.1,0.1-0.2,0.1-0.4v0
	c0.1,0,0.2,0,0.3-0.1c0.1-0.1,0.1-0.1,0.2-0.2c0,0,0.2-0.6,0.3-1.6C15,7.1,15,6.3,14.9,5.6z M3,2.9c0.3-0.5,0.5-1.1,1-1.4
	C4.8,1.2,6.3,1,7.5,1c1.2,0,2.7,0.2,3.4,0.5c0.5,0.3,0.8,0.9,1,1.4L12,3c0,0,0,0.1,0,0.1c0,0,0,0.1,0,0.1c0,0-0.1,0.1-0.1,0.1
	c0,0-0.1,0-0.1,0c-1,0-3.2-0.1-4.3-0.1S4.2,3.3,3.2,3.3c0,0-0.1,0-0.1,0c0,0-0.1,0-0.1-0.1c0,0,0-0.1,0-0.1C2.9,3.1,3,3,3,2.9
	C3,3,3,2.9,3,2.9L3,2.9z M3.4,5.4C2.8,5.5,2.3,5.5,1.8,5.5C1.4,5.5,1.1,5.4,1,5.1c0-0.2,0-0.3,0-0.4c0-0.1,0.1-0.2,0.2-0.2
	c0.4-0.1,0.6,0,1.3,0.2C3,4.8,3.3,5,3.5,5.2C3.5,5.2,3.5,5.4,3.4,5.4L3.4,5.4z M10.3,8C9.9,8,9.1,8,7.5,8C5.9,8,5.1,8,4.7,8
	c-0.4,0-1-0.4-0.6-0.8c0.2-0.2,0.8-0.4,1.6-0.5c0.8-0.1,1.1-0.2,1.8-0.2c0.7,0,1,0,1.8,0.2c0.8,0.1,1.4,0.3,1.6,0.5
	C11.2,7.5,10.7,7.9,10.3,8L10.3,8z M14,5.1c-0.1,0.3-0.4,0.4-0.7,0.4c-0.6,0-1.1,0-1.7-0.1c-0.1,0-0.1-0.2,0-0.3
	C11.7,5,12,4.8,12.5,4.7c0.7-0.2,1-0.3,1.4-0.2c0.1,0,0.1,0.1,0.1,0.2C14,4.8,14,5,14,5.1L14,5.1z"/>
</svg>
