<svg width="20" height="20" viewBox="0 0 20 20" fill="none" xmlns="http://www.w3.org/2000/svg">
<path d="M11 20L13 18.8889L15 20V12.2222H11V20ZM15 6.66667V4.44444L13 5.55556L11 4.44444V6.66667L9 7.77778L11 8.88889V11.1111L13 10L15 11.1111V8.88889L17 7.77778L15 6.66667ZM18 0H2C1.46957 0 0.960859 0.234126 0.585786 0.650874C0.210714 1.06762 0 1.63285 0 2.22222V13.3333C0 13.9227 0.210714 14.4879 0.585786 14.9047C0.960859 15.3214 1.46957 15.5556 2 15.5556H9V13.3333H2V2.22222H18V13.3333H17V15.5556H18C18.5304 15.5556 19.0391 15.3214 19.4142 14.9047C19.7893 14.4879 20 13.9227 20 13.3333V2.22222C20 1.63285 19.7893 1.06762 19.4142 0.650874C19.0391 0.234126 18.5304 0 18 0ZM9 5.55556H3V3.33333H9V5.55556ZM7 8.88889H3V6.66667H7V8.88889ZM9 12.2222H3V10H9V12.2222Z" fill="white"/>
</svg>
