<?xml version="1.0" encoding="utf-8"?>
<!-- Generator: Adobe Illustrator 23.0.1, SVG Export Plug-In . SVG Version: 6.00 Build 0)  -->
<svg version="1.1" id="Layer_1" xmlns="http://www.w3.org/2000/svg" xmlns:xlink="http://www.w3.org/1999/xlink" x="0px" y="0px"
	 viewBox="0 0 14 12" style="enable-background:new 0 0 14 12;" xml:space="preserve">
<style type="text/css">
	.st0{fill:#FFFFFF;}
</style>
<path class="st0" d="M9.7,8.5c0.6-0.3,0.5-1.7-0.2-2.9C9.2,5,8.8,4.6,8.5,4.3C8,4.6,7.5,4.8,6.9,4.8c-0.6,0-1.1-0.2-1.6-0.5
	C5,4.6,4.6,5,4.3,5.6C3.6,6.9,3.5,8.2,4.1,8.5c0.3,0.2,0.6,0,0.9-0.2C4.9,8.6,4.9,8.9,4.9,9.2c0,1.5,0.6,2.7,1.3,2.7
	c0.4,0,0.6-0.4,0.7-1.1c0.1,0.7,0.3,1.1,0.7,1.1c0.7,0,1.3-1.2,1.3-2.7c0-0.3,0-0.6-0.1-0.9C9.1,8.6,9.4,8.7,9.7,8.5L9.7,8.5z
	 M6.9,4.3c0.3,0,0.6,0,0.8-0.2C8,4,8.3,3.9,8.5,3.7C8.7,3.5,8.8,3.2,8.9,3C9,2.7,9.1,2.4,9.1,2.1S9,1.6,8.9,1.3
	C8.8,1.1,8.7,0.8,8.5,0.6C8.3,0.4,8,0.3,7.7,0.2S7.2,0,6.9,0C6.4,0,5.8,0.2,5.4,0.6C5,1,4.8,1.6,4.8,2.1c0,0.6,0.2,1.1,0.6,1.5
	C5.8,4,6.4,4.3,6.9,4.3L6.9,4.3z M11.2,5.6c0.5,0,0.9-0.2,1.2-0.5c0.3-0.3,0.5-0.8,0.5-1.2S12.7,3,12.4,2.7
	c-0.3-0.3-0.8-0.5-1.2-0.5c-0.5,0-0.9,0.2-1.2,0.5C9.6,3,9.5,3.4,9.5,3.9c0,0.5,0.2,0.9,0.5,1.2C10.3,5.5,10.8,5.6,11.2,5.6
	L11.2,5.6z M13.4,6.7c-0.3-0.5-0.6-0.8-0.9-1.1C12.1,5.9,11.7,6,11.2,6c-0.4,0-0.7-0.1-1-0.3c0.2,0.5,0.4,1.1,0.4,1.6
	c0,0.8-0.2,1.3-0.7,1.6C9.8,9,9.7,9,9.6,9.1c0,0.2,0,0.4,0,0.6c0,1.2,0.5,2.2,1,2.2c0.3,0,0.5-0.4,0.6-0.9c0.1,0.5,0.3,0.9,0.6,0.9
	c0.6,0,1-1,1-2.2c0-0.3,0-0.5-0.1-0.8c0.2,0.2,0.5,0.3,0.7,0.2C14,8.8,13.9,7.8,13.4,6.7L13.4,6.7z M2.6,5.6c0.3,0,0.7-0.1,1-0.3
	c0.3-0.2,0.5-0.5,0.6-0.8c0.1-0.3,0.2-0.7,0.1-1C4.3,3.2,4.1,2.9,3.9,2.6C3.6,2.4,3.3,2.2,3,2.2c-0.3-0.1-0.7,0-1,0.1
	C1.6,2.4,1.4,2.6,1.2,2.9C1,3.2,0.9,3.5,0.9,3.9c0,0.5,0.2,0.9,0.5,1.2C1.7,5.5,2.2,5.6,2.6,5.6L2.6,5.6z M3.9,8.9
	C3.1,8.5,3,7.2,3.7,5.8C3.3,5.9,3,6,2.6,6C2.1,6,1.7,5.9,1.3,5.6C1,5.9,0.7,6.2,0.5,6.7c-0.6,1.1-0.6,2.1-0.1,2.4
	c0.2,0.1,0.5,0,0.7-0.2C1,9.2,1,9.4,1,9.7c0,1.2,0.5,2.2,1,2.2c0.3,0,0.5-0.4,0.6-0.9c0.1,0.5,0.3,0.9,0.6,0.9c0.6,0,1-1,1-2.2
	c0-0.2,0-0.4,0-0.6C4.1,9,4,9,3.9,8.9L3.9,8.9z"/>
</svg>
