<svg width="28" height="28" viewBox="0 0 28 28" fill="none" xmlns="http://www.w3.org/2000/svg">
<path d="M28 22.532C28 23.1605 27.78 23.6947 27.3401 24.1347L24.1347 27.3401C23.6947 27.78 23.1605 28 22.532 28C21.9035 28 21.3692 27.78 20.9293 27.3401L14 20.4108L7.07071 27.3401C6.63075 27.78 6.09652 28 5.46801 28C4.83951 28 4.30527 27.78 3.86532 27.3401L0.659933 24.1347C0.219978 23.6947 0 23.1605 0 22.532C0 21.9035 0.219978 21.3692 0.659933 20.9293L7.58923 14L0.659933 7.07071C0.219978 6.63075 0 6.09652 0 5.46801C0 4.83951 0.219978 4.30527 0.659933 3.86532L3.86532 0.659933C4.30527 0.219978 4.83951 0 5.46801 0C6.09652 0 6.63075 0.219978 7.07071 0.659933L14 7.58923L20.9293 0.659933C21.3692 0.219978 21.9035 0 22.532 0C23.1605 0 23.6947 0.219978 24.1347 0.659933L27.3401 3.86532C27.78 4.30527 28 4.83951 28 5.46801C28 6.09652 27.78 6.63075 27.3401 7.07071L20.4108 14L27.3401 20.9293C27.78 21.3692 28 21.9035 28 22.532Z" fill="#A6A6A6"/>
</svg>
