<svg width="19" height="20" viewBox="0 0 19 20" fill="none" xmlns="http://www.w3.org/2000/svg">
<path d="M16.4735 10.536C16.5095 10.236 16.5335 9.92403 16.5335 9.60003C16.5335 9.27603 16.5095 8.96403 16.4615 8.66403L18.4895 7.08003C18.5765 7.00715 18.6359 6.90663 18.6577 6.79525C18.6795 6.68387 18.6625 6.56837 18.6095 6.46803L16.6895 3.14403C16.5695 2.92803 16.3175 2.85603 16.1015 2.92803L13.7135 3.88803C13.2176 3.50525 12.6728 3.19046 12.0935 2.95203L11.7335 0.408031C11.7161 0.293573 11.658 0.189245 11.5698 0.114269C11.4816 0.0392932 11.3692 -0.00127796 11.2535 3.06982e-05H7.41349C7.29904 -0.00113077 7.18814 0.0397802 7.10187 0.114995C7.01559 0.190209 6.95994 0.294489 6.94549 0.408031L6.58549 2.95203C6.00717 3.19244 5.4626 3.50708 4.96549 3.88803L2.57749 2.92803C2.46995 2.88657 2.35102 2.88563 2.24284 2.92537C2.13466 2.96511 2.04461 3.04282 1.98949 3.14403L0.0694884 6.46803C0.0101091 6.56678 -0.0104917 6.68406 0.0116795 6.79713C0.0338508 6.9102 0.0972146 7.01102 0.189488 7.08003L2.21749 8.66403C2.16949 8.96403 2.13349 9.28803 2.13349 9.60003C2.13349 9.91203 2.15749 10.236 2.20549 10.536L0.177488 12.12C0.0904842 12.1929 0.0311078 12.2934 0.00926911 12.4048C-0.0125696 12.5162 0.0044503 12.6317 0.0574883 12.732L1.97749 16.056C2.09749 16.272 2.34949 16.344 2.56549 16.272L4.95349 15.312C5.44937 15.6948 5.9942 16.0096 6.57349 16.248L6.93349 18.792C6.98149 19.032 7.17349 19.2 7.41349 19.2H11.2535C11.4935 19.2 11.6975 19.032 11.7215 18.792L12.0815 16.248C12.6598 16.0076 13.2044 15.693 13.7015 15.312L16.0895 16.272C16.3055 16.356 16.5575 16.272 16.6775 16.056L18.5975 12.732C18.6569 12.6333 18.6775 12.516 18.6553 12.4029C18.6331 12.2899 18.5698 12.189 18.4775 12.12L16.4735 10.536ZM9.33349 13.2C7.35349 13.2 5.73349 11.58 5.73349 9.60003C5.73349 7.62003 7.35349 6.00003 9.33349 6.00003C11.3135 6.00003 12.9335 7.62003 12.9335 9.60003C12.9335 11.58 11.3135 13.2 9.33349 13.2Z" fill="#FAB516"/>
</svg>
