<svg width="16" height="16" viewBox="0 0 16 16" fill="none" xmlns="http://www.w3.org/2000/svg">
<path d="M8.66671 1.33337V2.00004H8.00004V6.00004H7.33337V6.66671H6.00004V7.33337H5.33337V8.00004H4.66671V8.66671H3.33337V8.00004H2.66671V7.33337H2.00004V6.00004H1.33337V10H2.00004V10.6667H2.66671V11.3334H3.33337V12H4.00004V14.6667H5.33337V14H4.66671V13.3334H5.33337V12.6667H6.00004V12H6.66671V12.6667H7.33337V14.6667H8.66671V14H8.00004V11.3334H8.66671V10.6667H9.33337V10H10V8.00004H10.6667V8.66671H11.3334V7.33337H10V6.00004H13.3334V5.33337H11.3334V4.66671H14.6667V2.00004H14V1.33337H8.66671ZM9.33337 2.00004H10V2.66671H9.33337V2.00004Z" fill="#F9B517"/>
</svg>
