<svg width="11" height="11" viewBox="0 0 11 11" fill="none" xmlns="http://www.w3.org/2000/svg">
<path d="M1.22173 0C0.543401 0 -0.000488281 0.543889 -0.000488281 1.22222V9.77778C-0.000488281 10.1019 0.128281 10.4128 0.357492 10.642C0.586703 10.8712 0.89758 11 1.22173 11H9.77729C10.1014 11 10.4123 10.8712 10.6415 10.642C10.8707 10.4128 10.9995 10.1019 10.9995 9.77778V5.5H9.77729V9.77778H1.22173V1.22222H5.49951V0H1.22173ZM9.03173 0.611111C8.92176 0.612039 8.8165 0.655898 8.7384 0.733333L7.99285 1.47278L9.52062 3.00056L10.2662 2.26111C10.4251 2.10222 10.4251 1.83333 10.2662 1.68056L9.31896 0.733333C9.23951 0.653889 9.13562 0.611111 9.03173 0.611111ZM7.55896 1.90667L3.05507 6.41667V7.94444H4.58285L9.08673 3.43444L7.55896 1.90667Z" fill="#A6A6A6"/>
</svg>
