<svg width="27" height="23" viewBox="0 0 27 23" fill="none" xmlns="http://www.w3.org/2000/svg">
<path d="M20.7273 5.405L27 11.523L20.7273 17.595V13.524H11.3409V9.476H20.7273V5.405ZM16.9545 17.181L19.3636 19.642C17 21.8807 14.4394 23 11.6818 23C8.39394 23 5.625 21.8998 3.375 19.6995C1.125 17.4992 0 14.7507 0 11.454C0 9.384 0.515152 7.46733 1.54545 5.704C2.57576 3.94067 3.96591 2.54917 5.71591 1.5295C7.46591 0.509833 9.36364 0 11.4091 0C14.197 0 16.8409 1.13467 19.3409 3.404L16.9545 5.842C15.2273 4.24733 13.3864 3.45 11.4318 3.45C9.17424 3.45 7.26894 4.24733 5.71591 5.842C4.16288 7.43667 3.38636 9.384 3.38636 11.684C3.38636 13.8307 4.18561 15.6783 5.78409 17.227C7.38258 18.7757 9.25758 19.55 11.4091 19.55C13.3939 19.55 15.2424 18.7603 16.9545 17.181Z" fill="white"/>
</svg>
