<svg width="16" height="12" viewBox="0 0 16 12" fill="none" xmlns="http://www.w3.org/2000/svg">
<path fill-rule="evenodd" clip-rule="evenodd" d="M2.965 0C1.781 0 0.859 0.524 0.363 1.476C0.137359 1.9166 0.0133201 2.40216 0 2.897V11.333C0 11.333 1.187 9.988 3.272 11.333C5.949 12.932 6.851 10.562 8.009 11.333C9.854 12.763 10.924 11.333 10.924 11.333C10.924 11.333 10.911 4.481 10.924 4.302C10.994 3.158 11.15 2.138 11.585 1.376C12.07 0.527 12.733 0.000999928 13.466 0.000999928H2.965V0Z" fill="white"/>
<path fill-rule="evenodd" clip-rule="evenodd" d="M15.027 1.71299C14.73 1.30399 14.384 1.06299 14.01 1.06299C13.48 1.06299 12.999 1.54499 12.646 2.32299C12.332 3.01899 12.12 3.95299 12.066 4.99899V6.00299C12.178 8.21799 13.004 9.93899 14.01 9.93899C15.091 9.93899 15.968 7.95299 15.968 5.50099C15.969 3.89499 15.592 2.49199 15.027 1.71299V1.71299ZM14.011 8.04699C13.481 8.04699 13.045 7.05599 12.987 5.78299V5.20299C13.016 4.60199 13.127 4.06399 13.292 3.66699C13.479 3.21399 13.731 2.93799 14.012 2.93799C14.207 2.93799 14.389 3.07499 14.545 3.31499C14.843 3.76099 15.041 4.57099 15.041 5.49399C15.04 6.90399 14.577 8.04699 14.011 8.04699V8.04699Z" fill="white"/>
</svg>
