<svg width="20" height="12" viewBox="0 0 20 12" fill="none" xmlns="http://www.w3.org/2000/svg">
<path d="M11 7H10.5V4.25C10.5 4.11187 10.3881 4 10.25 4H9.82563C9.6775 4 9.53281 4.04375 9.40969 4.12594L8.93062 4.44531C8.9033 4.4635 8.87983 4.4869 8.86156 4.51417C8.84328 4.54143 8.83056 4.57203 8.82412 4.60422C8.81768 4.6364 8.81764 4.66954 8.82401 4.70174C8.83038 4.73394 8.84304 4.76457 8.86125 4.79187L9.13875 5.20781C9.15694 5.23513 9.18034 5.2586 9.2076 5.27688C9.23487 5.29515 9.26547 5.30788 9.29765 5.31432C9.32984 5.32076 9.36298 5.3208 9.39518 5.31443C9.42738 5.30806 9.45801 5.2954 9.48531 5.27719L9.5 5.2675V7H9C8.86187 7 8.75 7.11187 8.75 7.25V7.75C8.75 7.88813 8.86187 8 9 8H11C11.1381 8 11.25 7.88813 11.25 7.75V7.25C11.25 7.11187 11.1381 7 11 7ZM19 0H1C0.447812 0 0 0.447812 0 1V11C0 11.5522 0.447812 12 1 12H19C19.5522 12 20 11.5522 20 11V1C20 0.447812 19.5522 0 19 0ZM1.5 10.5V8.5C2.60469 8.5 3.5 9.39531 3.5 10.5H1.5ZM1.5 3.5V1.5H3.5C3.5 2.60469 2.60469 3.5 1.5 3.5ZM10 9.5C8.34312 9.5 7 7.93281 7 6C7 4.06687 8.34312 2.5 10 2.5C11.6569 2.5 13 4.06687 13 6C13 7.93344 11.6562 9.5 10 9.5ZM18.5 10.5H16.5C16.5 9.39531 17.3953 8.5 18.5 8.5V10.5ZM18.5 3.5C17.3953 3.5 16.5 2.60469 16.5 1.5H18.5V3.5Z" fill="white"/>
</svg>
