<svg width="16" height="17" viewBox="0 0 16 17" fill="none" xmlns="http://www.w3.org/2000/svg">
<path d="M14.6825 7.75014C14.0478 8.38618 13.2388 8.81973 12.3577 8.99595C11.4766 9.17217 10.563 9.08314 9.7325 8.74014L4.3225 15.2601C3.3325 16.2501 1.7325 16.2501 0.7425 15.2601C-0.2475 14.2701 -0.2475 12.6701 0.7425 11.6901L7.2625 6.27014C6.5825 4.62014 6.9125 2.66014 8.2525 1.32014C9.5325 0.0401411 11.3725 -0.299859 12.9725 0.260141L10.0825 3.15014L12.9025 5.97014L15.7625 3.10014C16.2925 4.68014 15.9425 6.49014 14.6825 7.75014ZM1.8125 14.1901C2.2125 14.5801 2.8525 14.5801 3.2425 14.1901C3.6425 13.7901 3.6425 13.1501 3.2425 12.7601C2.8525 12.3601 2.2125 12.3601 1.8125 12.7601C1.62501 12.9509 1.51994 13.2077 1.51994 13.4751C1.51994 13.7426 1.62501 13.9994 1.8125 14.1901Z" fill="white"/>
</svg>
