<svg width="26" height="26" viewBox="0 0 26 26" fill="none" xmlns="http://www.w3.org/2000/svg">
<path d="M10.4286 1V4.42857L8.71429 5.28571L6.14286 2.71429L2.71429 6.14286L5.28571 8.71429L4.42857 10.4286H1V15.5714H4.42857L5.28571 17.2857L2.71429 19.8571L6.14286 23.2857L8.71429 20.7143L10.4286 21.5714V25H15.5714V21.5714L17.2857 20.7143L19.8571 23.2857L23.2857 19.8571L20.7143 17.2857L21.5714 15.5714H25V10.4286H21.5714L20.7143 8.71429L23.2857 6.14286L19.8571 2.71429L17.2857 5.28571L15.5714 4.42857V1H10.4286Z" stroke="white" stroke-linecap="round" stroke-linejoin="round"/>
<path d="M13 16C14.6569 16 16 14.6569 16 13C16 11.3431 14.6569 10 13 10C11.3431 10 10 11.3431 10 13C10 14.6569 11.3431 16 13 16Z" stroke="white" stroke-linecap="round" stroke-linejoin="round"/>
</svg>
