<?xml version="1.0" encoding="utf-8"?>
<!-- Generator: Adobe Illustrator 23.0.1, SVG Export Plug-In . SVG Version: 6.00 Build 0)  -->
<svg version="1.1" id="Layer_1" xmlns="http://www.w3.org/2000/svg" xmlns:xlink="http://www.w3.org/1999/xlink" x="0px" y="0px"
	 viewBox="0 0 18 19" style="enable-background:new 0 0 18 19;" xml:space="preserve">
<style type="text/css">
	.st0{fill:#FFFFFF;}
</style>
<path class="st0" d="M9,0C6.2,0,4,2.2,4,5s2.2,5,5,5s5-2.2,5-5S11.8,0,9,0z M9,8C7.3,8,6,6.7,6,5s1.3-3,3-3s3,1.3,3,3S10.7,8,9,8z
	 M18,19v-1c0-3.9-3.1-7-7-7H7c-3.9,0-7,3.1-7,7v1h2v-1c0-2.8,2.2-5,5-5h4c2.8,0,5,2.2,5,5v1H18z"/>
</svg>
