<svg width="16" height="16" viewBox="0 0 16 16" fill="none" xmlns="http://www.w3.org/2000/svg">
<path d="M13.7812 8.8524L16 11.3548L13.2812 12.0899L14 13.998L11.4219 13.2786L10.5 16L8.03125 14.3578L6.875 16L5.82812 13.998H3L3.25 12.1838H0.8125L1.95312 9.47801L0 8.38319L1.48438 7.19453L0.015625 5.06745L3 4.33236V2.00196L4.35938 2.89345L5.0625 0L7.57812 2.11144L9.89062 0L10.3906 1.79863L12.1875 0.797654L12.625 3.4565L15 3.00293L13.9375 5.41153L15.9844 6.86608L13.7812 8.8524ZM9 4.5044C9 4.35842 8.95052 4.23851 8.85156 4.14467C8.7526 4.05083 8.63542 4.00391 8.5 4.00391H7.5C7.36458 4.00391 7.2474 4.05083 7.14844 4.14467C7.04948 4.23851 7 4.35842 7 4.5044V8.50831C7 8.64386 7.04948 8.76116 7.14844 8.86022C7.2474 8.95927 7.36458 9.0088 7.5 9.0088H8.5C8.63542 9.0088 8.7526 8.95927 8.85156 8.86022C8.95052 8.76116 9 8.64386 9 8.50831V4.5044ZM9 10.5103C9 10.3643 8.95052 10.2444 8.85156 10.1505C8.7526 10.0567 8.63542 10.0098 8.5 10.0098H7.5C7.36458 10.0098 7.2474 10.0567 7.14844 10.1505C7.04948 10.2444 7 10.3643 7 10.5103V11.4956C7 11.6416 7.04948 11.7615 7.14844 11.8553C7.2474 11.9492 7.36458 11.9961 7.5 11.9961H8.5C8.63542 11.9961 8.7526 11.9492 8.85156 11.8553C8.95052 11.7615 9 11.6416 9 11.4956V10.5103Z" fill="#F9B517"/>
</svg>
